<?xml version="1.0" encoding="utf-8"?>
<!-- Generator: Adobe Illustrator 16.0.0, SVG Export Plug-In . SVG Version: 6.00 Build 0)  -->
<!DOCTYPE svg PUBLIC "-//W3C//DTD SVG 1.1//EN" "http://www.w3.org/Graphics/SVG/1.1/DTD/svg11.dtd">
<svg version="1.1"
	 id="svg1326" xmlns:dc="http://purl.org/dc/elements/1.1/" xmlns:cc="http://web.resource.org/cc/" xmlns:rdf="http://www.w3.org/1999/02/22-rdf-syntax-ns#" xmlns:svg="http://www.w3.org/2000/svg" xmlns:sodipodi="http://inkscape.sourceforge.net/DTD/sodipodi-0.dtd" xmlns:inkscape="http://www.inkscape.org/namespaces/inkscape" sodipodi:version="0.32" inkscape:version="0.42+devel" sodipodi:docbase="/home/silsor/graphics/mine" sodipodi:docname="Anglo-American_card_suits.svg"
	 xmlns="http://www.w3.org/2000/svg" xmlns:xlink="http://www.w3.org/1999/xlink" x="0px" y="0px" width="612px" height="792px"
	 viewBox="0 0 612 792" enable-background="new 0 0 612 792" xml:space="preserve">
<path id="path30_1_" sodipodi:nodetypes="ccccccccccccccccccccc" fill="#FF0000" d="M302.079,703.369
	c-0.572-1.029-3.024-8.466-5.455-16.526c-15.395-51.083-43.974-102.813-91.834-166.222c-17.982-23.821-34.906-44.916-80.671-100.545
	c-52.991-64.414-68.168-85.049-83.497-113.509c-9.051-16.807-18.431-42.38-21.516-58.667c-3.085-16.275-3.136-42.867-0.11-56.711
	c12.317-56.324,62.348-98.814,122.169-103.761c68.531-5.669,126.825,28.952,157.456,93.509l6.838,14.418l5.148-11.39
	c7.649-16.922,15.014-28.369,27.449-42.647c31.654-36.356,69.33-54.166,114.716-54.229c20.331-0.028,31.979,1.66,49.304,7.143
	c25.908,8.197,45.412,20.971,62.785,41.113c45.269,52.495,39.908,124.011-15.86,211.597c-13.007,20.434-36.479,50.663-68.759,88.559
	c-37.172,43.642-55.334,65.82-73.927,90.28c-44.572,58.627-74.551,111.896-91.038,161.779c-2.515,7.608-5.153,14.7-5.857,15.757
	C307.783,705.771,303.43,705.801,302.079,703.369z"/>
</svg>
